<svg xmlns="http://www.w3.org/2000/svg" width="810" height="540" fill="none"><g clip-path="url(#a)"><path fill="#fff" d="M810 540H0V0h810zm-411.735-99.271h-21.796l17.633 12.811-6.736 20.731L405 461.458l17.634 12.813-6.737-20.731 17.634-12.811h-21.796L405 420zm-90-24.115h-21.796l17.632 12.811-6.735 20.73L315 437.343l17.634 12.812-6.737-20.73 17.634-12.811h-21.796L315 395.885zm180 0h-21.796l17.633 12.811-6.736 20.73L495 437.343l17.634 12.812-6.737-20.73 17.634-12.811h-21.796L495 395.885zM242.38 350.729h-21.796l17.632 12.811-6.735 20.731 17.634-12.813 17.634 12.813-6.736-20.73 17.634-12.812h-21.796L249.115 330zm311.769 0h-21.796l17.633 12.812-6.735 20.73 17.634-12.813 17.634 12.813-6.737-20.731 17.634-12.811h-21.795L560.885 330zm-335.884-90h-21.796l17.633 12.811-6.736 20.731L225 281.458l17.634 12.813-6.737-20.731 17.634-12.811h-21.796L225 240zm360 0h-21.796l17.633 12.811-6.736 20.731 17.633-12.813 17.635 12.813-6.737-20.731 17.634-12.811h-21.796L585 240zm-335.885-90h-21.796l17.633 12.811-6.736 20.731 17.634-12.813 17.634 12.813-6.736-20.73 17.634-12.812h-21.796L249.115 150zm311.769 0h-21.796l17.633 12.812-6.735 20.73 17.634-12.813 17.634 12.813-6.737-20.731 17.634-12.811H567.62L560.885 150zm-245.884-65.884h-21.796l17.633 12.81-6.736 20.731L315 125.573l17.634 12.813-6.737-20.731 17.634-12.81h-21.796L315 84.115zm179.999 0h-21.795l17.633 12.81-6.736 20.731L495 125.573l17.634 12.813-6.737-20.731 17.634-12.81h-21.796L495 84.115zM398.265 80.73h-21.796l17.633 12.81-6.736 20.731L405 101.458l17.634 12.813-6.737-20.731 17.634-12.81h-21.796L405 60z"/></g><defs><clipPath id="a"><path fill="#fff" d="M0 0h810v540H0z"/></clipPath></defs></svg>