<svg width="45" height="58" viewBox="0 0 45 58" fill="none" xmlns="http://www.w3.org/2000/svg">
<g clip-path="url(#clip0_302_39)">
<path d="M44.267 19.057L25.833 0.73C25.3638 0.263059 24.729 0.000640095 24.067 0L9 0C6.569 0 4.404 0.96 2.685 2.67C0.965 4.379 0 6.583 0 9V49C0 51.417 0.966 53.621 2.685 55.33C4.40812 57.0413 6.73846 58.0012 9.167 58H36C38.431 58 40.596 56.71 42.315 55C44.035 53.29 45 51.417 45 49V20.714C44.9734 20.089 44.7116 19.4971 44.267 19.057ZM27 8L37 18H27V8ZM36 53.029H9.167C8.06286 53.0295 7.00338 52.5931 6.22 51.815C5.44 51.038 5 50.1 5 49V9C5 7.901 5.439 6.962 6.22 6.185C7.002 5.408 7.895 5 9 5H22V21C22.009 21.657 22.13 22 22.5 22.37C23 22.87 23.34 22.991 24 23H40V49C40 50.099 39.561 51.038 38.78 51.815C37.998 52.592 37.105 53.029 36 53.029Z" fill="black"/>
<path d="M32.9219 50L30.3037 42.4736H32.4434L34.002 48.1338H34.125L35.6699 42.4736H37.7686L35.1641 50H32.9219Z" fill="black"/>
<path d="M26.2227 50.1572C25.5391 50.1572 24.9557 50.0638 24.4727 49.877C23.9941 49.6855 23.6182 49.4235 23.3447 49.0908C23.0758 48.7581 22.9186 48.3776 22.873 47.9492L22.8662 47.9219H24.8281L24.8418 47.9492C24.9238 48.1816 25.0788 48.373 25.3066 48.5234C25.5391 48.6738 25.8512 48.749 26.2432 48.749C26.4984 48.749 26.7217 48.7148 26.9131 48.6465C27.1045 48.5736 27.2549 48.4756 27.3643 48.3525C27.4736 48.2295 27.5283 48.0859 27.5283 47.9219V47.9082C27.5283 47.7077 27.4463 47.5413 27.2822 47.4092C27.1182 47.277 26.8447 47.1676 26.4619 47.0811L25.2041 46.8145C24.7256 46.7142 24.3268 46.5684 24.0078 46.377C23.6888 46.181 23.4495 45.9417 23.29 45.6592C23.1351 45.3766 23.0576 45.0485 23.0576 44.6748V44.668C23.0576 44.194 23.1875 43.7816 23.4473 43.4307C23.7116 43.0752 24.0785 42.7995 24.5479 42.6035C25.0218 42.4076 25.571 42.3096 26.1953 42.3096C26.8516 42.3096 27.4098 42.4098 27.8701 42.6104C28.3304 42.8063 28.6836 43.0706 28.9297 43.4033C29.1803 43.7314 29.3193 44.0983 29.3467 44.5039V44.5312H27.4941L27.4873 44.4971C27.4326 44.292 27.2959 44.112 27.0771 43.957C26.8584 43.7975 26.5622 43.7178 26.1885 43.7178C25.9606 43.7178 25.7578 43.752 25.5801 43.8203C25.4023 43.8887 25.2611 43.9844 25.1562 44.1074C25.056 44.2305 25.0059 44.3763 25.0059 44.5449V44.5518C25.0059 44.6839 25.04 44.8001 25.1084 44.9004C25.1768 45.0007 25.2884 45.0872 25.4434 45.1602C25.5983 45.2331 25.8057 45.2992 26.0654 45.3584L27.3164 45.625C28.0684 45.7891 28.6243 46.0352 28.9844 46.3633C29.3444 46.6914 29.5244 47.1335 29.5244 47.6895V47.6963C29.5244 48.193 29.3831 48.626 29.1006 48.9951C28.818 49.3643 28.4284 49.6514 27.9316 49.8564C27.4349 50.057 26.8652 50.1572 26.2227 50.1572Z" fill="black"/>
<path d="M18.3135 50.1572C17.5296 50.1572 16.862 50.0046 16.3105 49.6992C15.7637 49.3893 15.3467 48.9427 15.0596 48.3594C14.7725 47.7715 14.6289 47.0605 14.6289 46.2266V46.2129C14.6289 45.3835 14.7725 44.6794 15.0596 44.1006C15.3467 43.5218 15.7637 43.0798 16.3105 42.7744C16.862 42.4645 17.5296 42.3096 18.3135 42.3096C18.9788 42.3096 19.5508 42.4235 20.0293 42.6514C20.5078 42.8792 20.8861 43.2005 21.1641 43.6152C21.4421 44.0299 21.6107 44.5176 21.6699 45.0781V45.0986H19.8174L19.8105 45.085C19.7422 44.7204 19.5827 44.4287 19.332 44.21C19.0859 43.9867 18.7487 43.875 18.3203 43.875C17.9648 43.875 17.6618 43.9661 17.4111 44.1484C17.165 44.3262 16.9782 44.5882 16.8506 44.9346C16.723 45.2809 16.6592 45.707 16.6592 46.2129V46.2266C16.6592 46.7324 16.723 47.1631 16.8506 47.5186C16.9827 47.8695 17.1719 48.1361 17.418 48.3184C17.6641 48.5007 17.9648 48.5918 18.3203 48.5918C18.7305 48.5918 19.0586 48.4961 19.3047 48.3047C19.5508 48.1133 19.7171 47.8262 19.8037 47.4434L19.8174 47.4229L21.6631 47.416V47.4639C21.5902 48.0062 21.4147 48.4801 21.1367 48.8857C20.8587 49.2913 20.4827 49.6058 20.0088 49.8291C19.5348 50.0479 18.9697 50.1572 18.3135 50.1572Z" fill="black"/>
</g>
<defs>
<clipPath id="clip0_302_39">
<rect width="45" height="58" fill="white"/>
</clipPath>
</defs>
</svg>
