<svg width="45" height="58" fill="none" xmlns="http://www.w3.org/2000/svg"><path d="M44.267 19.057 25.833.73A2.507 2.507 0 0 0 24.067 0H9C6.569 0 4.404.96 2.685 2.67.965 4.379 0 6.583 0 9v40c0 2.417.966 4.621 2.685 6.33A9.192 9.192 0 0 0 9.167 58H36c2.431 0 4.596-1.29 6.315-3C44.035 53.29 45 51.417 45 49V20.714a2.48 2.48 0 0 0-.733-1.657ZM27 8l10 10H27V8Zm9 45.029H9.167a4.179 4.179 0 0 1-2.947-1.214C5.44 51.038 5 50.1 5 49V9c0-1.099.439-2.038 1.22-2.815C7.002 5.408 7.895 5 9 5h13v16c.009.657.13 1 .5 1.37.5.5.84.621 1.5.63h16v26c0 1.099-.439 2.038-1.22 2.815-.782.777-1.675 1.214-2.78 1.214Z" fill="#000"/></svg>
