<svg width="2253" height="2250" viewBox="0 0 2253 2250" fill="none" xmlns="http://www.w3.org/2000/svg">
<path d="M1064.67 799.5L1064.67 487L398.003 487L398.003 799.5L1064.67 799.5Z" fill="#0066FF" stroke="#202020" stroke-width="66.67" stroke-miterlimit="1.5" stroke-linecap="round" stroke-linejoin="round"/>
<path d="M1252.17 799.5L1252.17 487L1064.67 487L1064.67 799.5L1252.17 799.5Z" fill="#FCE300" stroke="#202020" stroke-width="66.67" stroke-miterlimit="1.5" stroke-linecap="round" stroke-linejoin="round"/>
<path d="M1543.84 799.5L1543.84 487L1262.59 487L1262.59 799.5L1543.84 799.5Z" fill="#D9D9D6" stroke="#202020" stroke-width="66.67" stroke-miterlimit="1.5" stroke-linecap="round" stroke-linejoin="round"/>
<path d="M814.67 1320.33L814.67 1007.83L398.003 1007.83L398.003 1320.33L814.67 1320.33Z" fill="#0066FF" stroke="#202020" stroke-width="66.67" stroke-miterlimit="1.5" stroke-linecap="round" stroke-linejoin="round"/>
<path d="M1023 1841.17L1023 1528.67L398 1528.67L398 1841.17L1023 1841.17Z" fill="#0066FF" stroke="#202020" stroke-width="66.67" stroke-miterlimit="1.5" stroke-linecap="round" stroke-linejoin="round"/>
<path d="M939.67 1320.33L939.67 1007.83L814.67 1007.83L814.67 1320.33L939.67 1320.33Z" fill="#FCE300" stroke="#202020" stroke-width="66.67" stroke-miterlimit="1.5" stroke-linecap="round" stroke-linejoin="round"/>
<path d="M1337.59 1841.17L1337.59 1528.67L1023 1528.67L1023 1841.17L1337.59 1841.17Z" fill="#FCE300" stroke="#202020" stroke-width="66.67" stroke-miterlimit="1.5" stroke-linecap="round" stroke-linejoin="round"/>
<path d="M1189.67 1320.33L1189.67 1007.83L939.67 1007.83L939.67 1320.33L1189.67 1320.33Z" fill="#D9D9D6" stroke="#202020" stroke-width="66.67" stroke-miterlimit="1.5" stroke-linecap="round" stroke-linejoin="round"/>
<path d="M1856.34 1841.17L1856.34 1528.67L1337.59 1528.67L1337.59 1841.17L1856.34 1841.17Z" fill="#D9D9D6" stroke="#202020" stroke-width="66.67" stroke-miterlimit="1.5" stroke-linecap="round" stroke-linejoin="round"/>
<path fill-rule="evenodd" clip-rule="evenodd" d="M289.497 387.5L189.497 187.5L89.4971 387.5H289.497Z" fill="#202020"/>
<path fill-rule="evenodd" clip-rule="evenodd" d="M1864.5 1962.5L2064.5 2062.5L1864.5 2162.5V1962.5Z" fill="#202020"/>
<path d="M189.497 347.5V2062.5H1904.5" stroke="#202020" stroke-width="66.67" stroke-miterlimit="1.5" stroke-linecap="round" stroke-linejoin="round"/>
</svg>
