<svg viewBox="0 0 848.43 848.44" xmlns="http://www.w3.org/2000/svg" role="img" aria-describedby="sluLogoTitleId">
    <title id="sluLogoTitleId">Sveriges lantbruksuniversitet logo</title>
    <path fill="#690f31" d="M867.56,474.7c-58.43,38.71-114,84.5-198.51,84.5-97.68,0-179.9-45.22-195.65-143.29-11.46-71.49-12.89-261.41-12.89-325.85V15.78h1.43c38.67,80.27,107.42,128,107.42,210.78,0,41-13.46,67.55-33.8,106.55-10.6,20.35-26.36,46.35-26.36,70.37,0,14.13,6.59,27.69,30.94,27.69,47.84,0,74.77-24.86,136.93-24.86,71,0,121.75,25.71,190.49,66.69v1.7Z" transform="translate(-19.13 -15.78)"></path>
    <path fill="#00634c" d="M19.13,473c68.75-41,119.45-66.69,190.5-66.69,62.16,0,89.08,24.86,136.92,24.86,24.35,0,30.94-13.56,30.94-27.69,0-24-15.75-50-26.35-70.37-20.34-39-33.8-65.57-33.8-106.55,0-82.8,68.75-130.51,107.42-210.78h1.43V89.5c0,65-1.43,254.92-12.89,326.41C397.54,514,315.33,559.2,217.65,559.2c-84.51,0-140.08-45.79-198.52-84.5V473Z" transform="translate(-19.13 -15.78)"></path>
    <path fill="#00634c" d="M260.45,686.33c-8-13.47-27.51-24.64-60.45-24.64-24.35,0-42.39,7.45-42.39,27.5,0,45.55,113.44,36.95,113.44,107.42,0,41-29.51,67.61-88,67.61-28.65,0-55-4.59-71-11.75A196.63,196.63,0,0,1,110.63,827a230.15,230.15,0,0,1,1.43-24.06h1.72c16.9,22.05,44.69,29.5,72.19,29.5,26.92,0,41.25-10.89,41.25-29.22,0-45.83-112.29-33.23-112.29-106.85,0-40.39,30.65-65.6,88.23-65.6,14.89,0,43.25,1.72,59,8.88.86,3.73,1.15,13.47,1.15,20.92,0,10.31-.57,19.76-1.15,25.78Z" transform="translate(-19.13 -15.78)"></path>
    <path fill="#00634c" d="M451.23,827.55c34.66,0,51-4,61.3-13.46h1.73c-1.15,11.74-7.46,38.67-10.89,47.26H339.51v-1.72c9.74-6,14.32-11.46,14.32-30.65V701.22c0-43.83,0-54.71-13.18-64.74v-1.71c6.31-.58,18.05-1.15,32.37-1.15,16.62,0,31.23.57,38.67,1.43v1.72c-15.46,11.46-16,20.62-16,64.45V827.55Z" transform="translate(-19.13 -15.78)"></path>
    <path fill="#00634c" d="M567,700.94c0-43.55,0-52.71-15.76-64.17v-1.72c5.73-.57,20.35-1.43,35.24-1.43,8.31,0,16,0,23.77.57-.28,8.31-1.43,22.06-1.43,66.75v76.19c0,33.52,4.88,50.42,37.53,50.42,25.49,0,50.7-10,61.3-18.91,4.58-4,4.58-8.3,4.58-14V701.8c0-44.41,0-53.29-15.75-65v-1.72c5.73-.57,20.34-1.43,35.81-1.43,7.73,0,15.18,0,23.21.57-.29,8.31-1.44,22.06-1.44,67V806.64c0,19.19,2.29,43,18.62,53.57v1.14h-49c-3.73-4-7.16-16-8.31-20.62-23.21,15.47-47.27,23.49-78.78,23.49C583.29,864.22,567,837.86,567,796v-95.1Z" transform="translate(-19.13 -15.78)"></path>
</svg>